<mxfile host="app.diagrams.net" modified="2023-06-29T19:22:58.042Z" agent="Mozilla/5.0 (Macintosh; Intel Mac OS X 10_15_7) AppleWebKit/605.1.15 (KHTML, like Gecko) Version/16.4 Safari/605.1.15" version="21.5.2" etag="M4QQXnLnCUgbNg-SNJtH" type="github">
  <diagram name="Страница 1" id="gu2eSfzMiHvShHV-Xlk5">
    <mxGraphModel>
      <root>
        <mxCell id="0" />
        <mxCell id="1" parent="0" />
      </root>
    </mxGraphModel>
  </diagram>
</mxfile>
